<?xml version="1.0" encoding="UTF-8" standalone="yes"?>
<svg version="1.2" viewBox="0 0 256 256" baseProfile="tiny-ps" xmlns="http://www.w3.org/2000/svg">
  <title>Chamli</title>
  <defs id="defs1"/>
  <g id="g1">
    <g id="g2" transform="translate(2.7416354,1.3708127)">
      <path d="m 111.94941,241.00082 c -6.92809,-1.0011 -12.10199,-2.37339 -17.92895,-4.75537 -11.391652,-4.65672 -21.484912,-12.51592 -29.084132,-22.64659 -8.49398,-11.32351 -13.06955,-22.77943 -14.77349,-36.98861 -0.44179,-3.68425 -0.36756,-12.21787 0.13807,-15.86992 3.13721,-22.65933 18.04665,-43.00611 37.12753,-50.66763 3.52765,-1.41646 7.859952,-2.5963 11.804932,-3.21491 2.26776,-0.35561 4.10374,-0.41769 9.19041,-0.31077 8.1451,0.17121 12.93233,0.81264 33.45216,4.48221 24.61411,4.40175 40.6303,4.85903 61.60551,1.75892 8.34843,-1.23389 19.88119,-3.76078 25.41405,-5.56837 1.51802,-0.49592 2.76003,-0.81791 2.76003,-0.71552 0,0.39369 -5.27804,5.71287 -7.24016,7.29662 -10.61696,8.56955 -25.90498,14.26746 -45.74502,17.04935 -8.76253,1.22865 -13.82681,1.59989 -28.03214,2.05488 -13.41053,0.42953 -18.56262,1.13157 -25.86264,3.52413 -23.19627,7.60249 -37.087212,30.4912 -30.60378,50.42719 1.69302,5.2059 4.91283,10.33325 9.12677,14.53383 7.0084,6.98619 15.3159,10.49907 24.82736,10.49844 5.5849,-2.7e-4 11.17791,-1.25683 15.68351,-3.52328 4.37111,-2.1988 9.33672,-6.37784 12.25789,-10.31621 3.84458,-5.18331 5.95577,-11.73336 5.24935,-16.28633 -1.32437,-8.53574 -7.79569,-15.80674 -15.80846,-17.76195 -2.43341,-0.59378 -6.46299,-0.59611 -8.72131,-0.005 -6.85565,1.79431 -11.80258,7.93183 -10.81397,13.41662 0.57929,3.2139 2.18042,5.30884 5.10638,6.68122 1.31299,0.61585 1.84002,0.70128 4.32603,0.70128 3.38862,0 5.33678,-0.5779 8.19979,-2.43235 1.0252,-0.66405 2.06797,-1.20736 2.31729,-1.20736 1.0715,0 1.8849,1.91595 1.8849,4.43983 0,3.62206 -1.6508,6.9858 -5.09834,10.38863 -4.15906,4.10509 -8.31526,5.87522 -14.40109,6.13341 -2.24539,0.0953 -4.13599,0.0265 -5.39217,-0.19593 -9.97139,-1.7662 -18.28303,-10.37939 -20.29908,-21.03555 -0.65828,-3.47946 -0.40466,-9.31916 0.54449,-12.53679 1.67497,-5.67822 4.80465,-10.715 9.72658,-15.65357 11.47393,-11.51274 28.77546,-15.49188 44.122,-10.14756 8.81912,3.07119 17.16353,9.59539 22.49192,17.58563 5.46016,8.18783 8.28312,19.04143 7.40703,28.4782 -1.16714,12.57176 -6.23001,23.11266 -15.75784,32.80781 -10.84449,11.03496 -25.26215,17.7664 -42.21608,19.7102 -4.90071,0.56188 -12.61008,0.50342 -16.98533,-0.12879 z" id="path5" fill="#fdf03b" stroke-width="0.269609"/>
      <path id="path3" d="m 103.96734,11.40108 c -2.67884,-0.0228 -4.9197,0.0972 -6.5002,0.37924 -3.880182,0.69232 -6.236102,2.24894 -7.096622,4.68947 -1.44079,4.0862 0.8802,13.5251 6.430962,26.15188 0.69806,1.58792 1.35891,2.88711 1.46874,2.88711 0.10984,0 0.55003,-0.11854 0.97829,-0.26332 1.20097,-0.40601 9.63433,-1.55938 15.0131,-2.05308 5.92814,-0.54413 20.61078,-0.61594 27.66258,-0.13534 12.45215,0.84867 25.43185,2.73555 34.64537,5.0362 14.15116,3.53357 30.88324,10.41888 39.07677,16.08002 1.10784,0.76545 2.05668,1.35873 2.10868,1.3182 0.15873,-0.12372 -0.55557,-1.03385 -3.60575,-4.594 C 209.05513,54.95164 203.32654,49.4934 196.57794,44.15545 178.11954,29.55539 157.67902,20.03187 133.86713,14.9381 123.97911,12.82289 112.00389,11.46962 103.96734,11.40108 Z m 4.08414,95.94881 c 0.002,0.001 0.006,0.004 0.007,0.004 0.0215,10e-4 0.043,0.002 0.0646,0.004 -0.007,-0.004 -0.0133,-0.006 -0.02,-0.008 -0.0186,-1.5e-4 -0.0332,1e-4 -0.052,0 z m 0.21611,0 c 0.002,0.004 0.005,0.009 0.007,0.0142 0.15283,0.004 0.30523,-0.003 0.45741,-0.0136 -0.15155,-0.005 -0.3006,0.001 -0.46476,-5e-4 z m 60.62521,8.01983 c -0.007,-2.7e-4 -0.0147,0.004 -0.0215,0.004 0.0442,0.0128 0.0879,0.0269 0.13219,0.0394 0.0228,0.007 0.0459,0.011 0.0687,0.0173 -0.0466,-0.0309 -0.10269,-0.0572 -0.1794,-0.0603 z" fill="#53c97a" stroke-width="0.268569"/>
      <path d="m 109.69579,241.38456 c -19.903302,-1.65031 -36.998872,-7.94709 -53.310922,-19.6359 -16.59818,-11.89388 -29.11054,-28.37957 -35.71649,-47.05836 -2.065185,-5.83947 -4.363978,-14.79708 -3.913101,-15.24796 0.07994,-0.0799 0.03537,-0.27781 -0.09899,-0.43971 -0.134374,-0.16192 -0.522124,-2.34844 -0.861671,-4.85896 -0.808589,-5.97862 -0.874951,-17.82632 -0.130867,-23.36437 1.481279,-11.0248 4.117238,-19.65728 9.020919,-29.54257 5.14169,-10.36509 12.17134,-20.12657 20.24441,-28.1117 13.06602,-12.92367 30.56572,-22.72522 48.57191,-27.20503 5.687372,-1.41498 5.710842,-1.41967 10.739622,-2.14769 8.29863,-1.20138 13.61633,-1.55971 23.315,-1.57109 23.81173,-0.0279 45.93422,3.42696 63.32673,9.88987 9.63789,3.58136 19.16222,8.05663 23.51615,11.04971 0.71704,0.49293 1.44217,0.81709 1.61141,0.72035 0.16923,-0.0967 0.21782,-0.0767 0.10798,0.0445 -0.20225,0.2232 0.85129,1.11973 1.18834,1.01123 0.21579,-0.0695 4.54012,5.73823 6.84601,9.19439 3.88448,5.82221 7.40847,12.68947 9.64729,18.79981 1.17959,3.21943 1.28075,3.69014 1.29857,6.0428 0.0172,2.27439 -0.0626,2.71813 -0.73473,4.08697 -1.24821,2.54183 -2.61367,3.71197 -5.37546,4.60646 -5.4989,1.781 -17.61883,4.43138 -25.83017,5.64854 -20.78871,3.08147 -36.86535,2.56061 -62.44224,-2.02308 -25.10337,-4.49881 -32.87519,-5.21548 -41.61664,-3.83763 -9.216732,1.45277 -17.226542,5.04391 -24.666592,11.05909 -13.51448,10.92628 -22.45551,28.02639 -23.97651,45.85616 -0.87063,10.20584 1.11913,22.52692 5.28829,32.74633 5.34864,13.11053 15.64792,25.68702 27.22915,33.24961 8.54877,5.58238 18.458712,9.21582 29.139712,10.68397 l 3.4914,0.4799 -2.41712,-0.0183 c -1.32941,-0.0101 -2.90054,-0.0584 -3.49139,-0.10737 z M 175.51478,90.22077 c 2.34871,-0.59442 5.2507,-2.14807 7.04471,-3.77157 6.77838,-6.13407 7.2455,-16.74848 1.03049,-23.41591 -2.08611,-2.23798 -4.24052,-3.63854 -6.9995,-4.55033 -1.89345,-0.62574 -2.61402,-0.71821 -5.661,-0.72646 -3.19981,-0.009 -3.65916,0.0544 -5.50002,0.75457 -4.39076,1.6701 -7.55776,4.48275 -9.40068,8.34886 -1.32732,2.78447 -1.72624,4.54983 -1.69926,7.51992 0.0263,2.89432 0.60539,5.28083 1.86396,7.68167 3.53982,6.75251 11.53648,10.12946 19.3213,8.15925 z" id="path4" fill="#2cc3e1" stroke-width="0.268569"/>
      <path d="m 167.97151,90.52264 c -5.24162,-0.99873 -9.45148,-4.02301 -11.77803,-8.46112 -1.25857,-2.40084 -1.83766,-4.78735 -1.86396,-7.68167 -0.027,-2.97009 0.37194,-4.73545 1.69926,-7.51992 1.84292,-3.86611 5.00992,-6.67876 9.40068,-8.34886 1.84086,-0.70021 2.30021,-0.76322 5.50002,-0.75457 3.04698,0.008 3.76755,0.10072 5.661,0.72646 10.30891,3.40688 14.61473,15.69279 8.68794,24.78957 -3.58176,5.49749 -10.74847,8.49974 -17.30691,7.25011 z" id="path2" fill="#005f91" stroke-width="0.268569"/>
    </g>
  </g>
</svg>