<?xml version="1.0" encoding="UTF-8"?>
<!-- Created with Inkscape (http://www.inkscape.org/) -->

<svg version="1.2" baseProfile="tiny" xmlns="http://www.w3.org/2000/svg">
  <defs
     id="defs1" />
  <sodipodi:namedview
     id="namedview1"
     pagecolor="#ffffff"
     bordercolor="#000000"
     borderopacity="0.25"
     inkscape:showpageshadow="2"
     inkscape:pageopacity="0.0"
     inkscape:pagecheckerboard="0"
     inkscape:deskcolor="#d1d1d1"
     showgrid="false"
     inkscape:zoom="0.72949219"
     inkscape:cx="483.89826"
     inkscape:cy="391.36814"
     inkscape:window-width="1920"
     inkscape:window-height="986"
     inkscape:window-x="-11"
     inkscape:window-y="-11"
     inkscape:window-maximized="1"
     inkscape:current-layer="g2" />
  <g
     inkscape:groupmode="layer"
     inkscape:label="Image"
     id="g1">
    <g
       id="g2"
       transform="translate(2.7416354,1.3708127)">
      <path
         style="fill:#fdf03b;stroke-width:1.00387"
         d="m 466.89124,922.90329 c -25.79633,-3.72752 -45.06105,-8.83717 -66.7574,-17.70631 -42.41614,-17.33905 -79.99776,-46.60231 -108.29301,-84.32328 -31.62684,-42.16239 -48.66369,-84.81782 -55.0082,-137.72487 -1.64504,-13.7181 -1.36862,-45.49254 0.51407,-59.09071 11.68124,-84.37064 67.19565,-160.13072 138.24213,-188.65794 13.135,-5.27408 29.2661,-9.66716 43.95496,-11.97051 8.44389,-1.32409 15.28002,-1.55525 34.21996,-1.15712 30.32782,0.63749 48.15277,3.02583 124.55714,16.68925 91.64919,16.38964 151.28453,18.0923 229.38447,6.54919 31.08487,-4.59431 74.02643,-14.00304 94.62773,-20.73344 5.65223,-1.84657 10.27677,-3.04546 10.27677,-2.6642 0,1.46584 -19.65246,21.27152 -26.95833,27.16851 -39.53158,31.90821 -96.45561,53.12404 -170.32883,63.48226 -32.62676,4.5748 -51.4833,5.95706 -104.37601,7.65119 -49.93333,1.59936 -69.11679,4.21335 -96.29802,13.1219 -86.36994,28.30744 -138.09201,113.53219 -113.95136,187.76266 6.30387,19.38389 18.29264,38.47528 33.98298,54.11586 26.09539,26.01264 57.02785,39.09267 92.4432,39.09032 20.79507,-10e-4 41.6203,-4.67973 58.39665,-13.11873 16.27554,-8.18708 34.7647,-23.74751 45.64151,-38.41178 14.31506,-19.29975 22.17595,-43.68851 19.54565,-60.6412 -4.9312,-31.78231 -29.0268,-58.85547 -58.86189,-66.13557 -9.06064,-2.2109 -24.06454,-2.21958 -32.47323,-0.0188 -25.52664,6.68105 -43.94623,29.53373 -40.26522,49.95599 2.15695,11.96677 8.11868,19.76714 19.0133,24.87713 4.88888,2.29307 6.85122,2.61118 16.10774,2.61118 12.61731,0 19.87117,-2.15176 30.53142,-9.05671 3.81726,-2.47255 7.69998,-4.49555 8.62828,-4.49555 3.98968,0 7.01835,7.13393 7.01835,16.53147 0,13.48652 -6.14665,26.0112 -18.9834,38.68143 -15.48597,15.28507 -30.96134,21.87603 -53.62159,22.83742 -8.3606,0.35471 -15.40009,0.0989 -20.07742,-0.72957 -37.12788,-6.5763 -68.07577,-38.64701 -75.58243,-78.32462 -2.45108,-12.95555 -1.50672,-34.69932 2.02737,-46.67999 6.23668,-21.14252 17.88986,-39.89668 36.21636,-58.28515 42.72249,-42.86696 107.14373,-57.68312 164.28565,-37.78384 32.83746,11.43541 63.90737,35.72788 83.74734,65.47909 20.33057,30.48689 30.84171,70.89964 27.57964,106.03689 -4.34578,46.81017 -23.1971,86.05859 -58.67338,122.15793 -40.37884,41.088 -94.06214,66.15211 -157.18909,73.38976 -18.24752,2.09212 -46.95288,1.87446 -63.24386,-0.47956 z"
         id="path5" />
      <path
         id="path3"
         style="display:inline;fill:#53c97a"
         d="m 437.17047,68.002234 c -9.97453,-0.08507 -18.3182,0.362096 -24.20312,1.41211 -14.44764,2.577813 -23.21973,8.373795 -26.42383,17.460937 -5.36468,15.214759 3.27737,50.359919 23.94531,97.374999 2.59915,5.9125 5.05978,10.75 5.46875,10.75 0.40897,0 2.048,-0.4414 3.64258,-0.98047 4.47177,-1.51175 35.87286,-5.80626 55.90039,-7.64453 22.0731,-2.02603 76.74305,-2.29342 103,-0.50391 46.36485,3.15995 94.69399,10.18566 129,18.75196 52.69101,13.15708 114.99191,38.79409 145.5,59.87304 4.125,2.85009 7.65796,5.05911 7.85156,4.90821 0.59102,-0.46065 -2.06861,-3.84947 -13.42578,-17.10547 C 828.45864,230.16018 807.12856,209.83674 782.00055,189.96122 713.27177,135.59874 637.16272,100.1385 548.50055,81.172156 511.6831,73.296283 467.09407,68.257451 437.17047,68.002234 Z M 452.37751,425.262 c 0.009,0.006 0.0214,0.0131 0.0273,0.0176 0.0801,0.006 0.16019,0.009 0.24023,0.0137 -0.0239,-0.0125 -0.0496,-0.0208 -0.0742,-0.0312 -0.0693,-5.3e-4 -0.12376,4e-4 -0.19335,0 z m 0.80468,0 c 0.009,0.0177 0.0183,0.035 0.0274,0.0527 0.56904,0.0125 1.13653,-0.0117 1.70312,-0.0508 -0.56426,-0.0181 -1.11923,0.006 -1.73047,-0.002 z m 225.73438,29.86133 c -0.0252,-0.001 -0.0544,0.0139 -0.0801,0.0137 0.16461,0.0475 0.32716,0.10015 0.49219,0.14648 0.0847,0.0241 0.17094,0.0413 0.25586,0.0645 -0.17324,-0.11503 -0.38239,-0.21286 -0.66797,-0.22461 z" />
      <path
         style="display:inline;fill:#2cc3e1"
         d="M 458.5,924.33213 C 384.39125,918.18732 320.73693,894.74164 260,851.219 198.19762,806.93287 151.60859,745.54939 127.01174,676 c -7.6896,-21.7429 -16.24905,-55.09602 -14.5702,-56.77487 0.29761,-0.29761 0.13173,-1.03438 -0.36861,-1.63726 -0.50035,-0.60288 -1.94411,-8.74428 -3.20837,-18.09201 -3.01075,-22.26108 -3.25785,-66.37526 -0.48729,-86.99586 5.51545,-41.05018 15.33028,-73.19271 33.58886,-110 19.14479,-38.5938 45.31931,-74.94012 75.3789,-104.67224 48.65054,-48.12055 113.80962,-84.61604 180.85461,-101.29638 21.17656,-5.26858 21.26395,-5.28606 39.98832,-7.99675 30.89946,-4.47325 50.69961,-5.8075 86.81204,-5.84989 88.66155,-0.10408 171.03336,12.7601 235.79334,36.82435 35.88611,13.33497 71.34938,29.99838 87.56096,41.14296 2.66986,1.83538 5.36986,3.04237 6,2.68218 0.63013,-0.36018 0.81106,-0.2856 0.40206,0.16575 -0.7531,0.83107 3.16973,4.16924 4.42468,3.76524 0.80349,-0.25867 16.90488,21.36595 25.49074,34.23478 14.46362,21.67864 27.58501,47.24849 35.92111,70 4.39215,11.98736 4.76878,13.74001 4.83514,22.5 0.0642,8.46854 -0.23287,10.12079 -2.73572,15.21758 -4.6476,9.46438 -9.73183,13.82128 -20.0152,17.15189 -20.47482,6.63145 -65.60266,16.5 -96.17711,21.032 -77.40552,11.47369 -137.26595,9.53426 -232.5,-7.5328 -93.47091,-16.75109 -122.40878,-19.41957 -154.95705,-14.28922 -34.31797,5.4093 -64.14201,18.7807 -91.84461,41.17788 -50.32037,40.68336 -83.61173,104.3546 -89.27511,170.74267 -3.24174,38.00086 4.16703,83.87767 19.69064,121.92902 19.91535,48.81632 58.2641,95.64412 101.38613,123.80298 31.83083,20.78566 68.72989,34.31456 108.5,39.78112 l 13,1.7869 -9,-0.0681 c -4.95,-0.0375 -10.8,-0.21737 -13,-0.39978 z M 703.57309,361.48271 c 8.7453,-2.21329 19.55071,-7.99823 26.23062,-14.0432 25.23888,-22.83988 26.97816,-62.36197 3.83694,-87.1878 -7.76751,-8.33296 -15.78932,-13.54787 -26.06224,-16.94285 -7.05014,-2.32991 -9.73313,-2.67421 -21.07841,-2.70493 -11.91427,-0.0323 -13.62463,0.2024 -20.47899,2.80958 -16.34873,6.21854 -28.14085,16.69127 -35.00286,31.08649 -4.9422,10.3678 -6.42753,16.94104 -6.32706,28 0.0979,10.77681 2.25409,19.66284 6.94032,28.60225 13.18029,25.14258 42.9554,37.7164 71.94168,30.38046 z"
         id="path4" />
      <path
         style="fill:#005f91"
         d="m 675.48619,362.60669 c -19.51685,-3.71869 -35.19201,-14.97943 -43.85478,-31.50444 -4.68623,-8.93941 -6.84242,-17.82544 -6.94032,-28.60225 -0.10047,-11.05896 1.38486,-17.6322 6.32706,-28 6.86201,-14.39522 18.65413,-24.86795 35.00286,-31.08649 6.85436,-2.60718 8.56472,-2.84183 20.47899,-2.80958 11.34528,0.0307 14.02827,0.37502 21.07841,2.70493 38.38464,12.68529 54.41709,58.43115 32.34905,92.30248 -13.33649,20.46963 -40.02131,31.64827 -64.44127,26.99535 z"
         id="path2" />
    </g>
  </g>
</svg>
